<svg xmlns="http://www.w3.org/2000/svg" xmlns:xlink="http://www.w3.org/1999/xlink" version="1.1" id="Camada_1" x="0px" y="0px" style="enable-background:new -178.2 384.7 143.3 73;" xml:space="preserve" viewBox="-176.9 386.3 141.02 70.11">
<style type="text/css">
	.st0{fill:url(#XMLID_2_);}
	.st1{fill:url(#XMLID_3_);}
	.st2{fill:#C2DF45;}
	.st3{fill:#3FCAFF;}
	.st4{fill:#FFFFFF;}
</style>
<g id="XMLID_608_">
	<g id="XMLID_648_">
		
			<linearGradient id="XMLID_2_" gradientUnits="userSpaceOnUse" x1="-139.2791" y1="437.5139" x2="-104.0094" y2="402.2442" gradientTransform="matrix(1 0 0 -1 0 841.27)">
			<stop offset="0" style="stop-color:#BBC641"/>
			<stop offset="0.5455" style="stop-color:#3FCAFF"/>
			<stop offset="1" style="stop-color:#FFFFFF"/>
		</linearGradient>
		<path id="XMLID_651_" class="st0" d="M-117.9,442.9c3.4-3.3,7.4-5.8,11.3-8.5c2.2-1.5,4.4-3,6.3-4.8c4.1-4,4.3-11.2,0.3-15.4    c-1.9-2-4.2-3.6-6.5-5.3c-3.7-2.8-7.5-5.4-10.6-8.7c-2.2-2.3-4.2-4.9-5-8.1c-0.4-1.3-0.5-2.7-0.6-4.1c-0.1-1,0.6-1.6,1.5-1.7    c0.9,0,1.7,0.6,1.7,1.6c0,4.1,1.9,7.3,4.7,9.9c3,2.8,6.2,5.2,9.4,7.8c2.7,2.1,5.6,3.9,8,6.5c4.8,5.3,4.7,14.2-0.2,19.4    c-2.3,2.5-5.1,4.1-7.9,6c-3.8,2.6-7.7,5.1-10.9,8.5c-2.4,2.5-4.1,5.3-4.2,8.8c0,1-0.8,1.7-1.7,1.6c-1,0-1.6-0.8-1.6-1.8    c0.1-3.3,1.3-6.1,3.2-8.7C-119.8,444.9-118.8,443.9-117.9,442.9z"/>
		
			<linearGradient id="XMLID_3_" gradientUnits="userSpaceOnUse" x1="-111.0646" y1="434.6457" x2="-111.0646" y2="404.1022" gradientTransform="matrix(1 0 0 -1 0 841.27)">
			<stop offset="0" style="stop-color:#BBC641"/>
			<stop offset="0.5455" style="stop-color:#3FCAFF"/>
			<stop offset="0.9987" style="stop-color:#FFFFFF"/>
		</linearGradient>
		<path id="XMLID_650_" class="st1" d="M-98.6,420.3c-7.2-0.1-14.3-0.3-21.5-0.4c-0.1,1.1-0.1,2.1-0.2,3.3    c7.3,0.1,14.4,0.3,21.5,0.4c0,0.1,0.1,0.2,0,0.3c-0.4,2.1-0.4,2.1-2.5,2.1c-5.8-0.1-11.6-0.2-17.5-0.3c-0.3,0-0.6-0.1-0.9-0.1    c-0.1,0.1-0.2,0.2-0.2,0.3c0.6,1.1,1.2,2.2,1.8,3.2c0.1,0.2,0.6,0.2,1,0.2c4.6,0.1,9.1,0.2,13.7,0.2c0.3,0,0.6,0,1,0.1    c-1.2,0.9-2.1,2.3-4,2.3c-2.9,0-5.7,0.2-8.4,0.3c1.2,0.9,2.7,2,4.3,3.2c-0.9,0.6-1.7,1.2-2.5,1.8c-0.1,0.1-0.4,0-0.5-0.1    c-2.8-2-5.6-4-7.6-6.8c-3.7-5.3-3.1-13.2,1.3-18c2.1-2.3,4.7-3.9,7.2-5.6c0.2-0.1,0.7-0.1,1,0.1c0.7,0.5,1.4,1,2.2,1.6    c-1.6,1.1-3.2,2.2-4.8,3.4c0,0.1,0.1,0.1,0.1,0.2c2.5,0,5.1,0.3,7.6,0.1c2.3-0.2,3.6,1,5.2,2.5c-0.5,0-0.9,0-1.2,0    c-4.5-0.1-9-0.1-13.5-0.2c-1,0-1.7,0.1-2.1,1.1c-0.3,0.6-0.7,1.2-1.2,2c6.8,0.1,13.5,0.3,20.2,0.4    C-99,418.6-98.8,419.4-98.6,420.3z"/>
		<path id="XMLID_649_" class="st2" d="M-107,402.9c1.6-1.3,3-2.4,4.4-3.6c0-0.1-0.1-0.2-0.1-0.2c-1.7,0-3.4-0.1-5.1-0.1    c-0.5,0-1.1-0.1-1.6,0c-2.2,0.3-3.7-0.6-4.8-2.5c0.3,0,0.7,0,1,0c4.1,0.1,8.2,0.1,12.2,0.2c0.6,0,1-0.1,1.4-0.6    c0.5-0.9,1.1-1.7,1.8-2.8c-2.1,0-4-0.1-5.9-0.1c-4-0.1-8-0.2-12-0.2c-1.1,0-1.6-0.4-1.9-1.4c-0.1-0.3-0.2-0.7-0.3-1.1    c7,0.1,13.9,0.3,20.8,0.4c0.1-0.6,0.1-1.1,0.2-1.7c0.1-1.2,0.7-1.9,1.8-1.8c1,0.1,1.6,0.8,1.5,2.1c-0.1,3.1-1.3,5.9-3.1,8.4    c-2,2.7-4.5,4.9-7.1,6.8c-0.3,0-0.6,0-0.7,0C-105.4,404.1-106.1,403.5-107,402.9z"/>
	</g>
	<g id="XMLID_636_">
		<g id="XMLID_644_">
			<path id="XMLID_647_" class="st3" d="M-145.2,419.5h-5.7c-0.3,0-0.6,0.3-0.6,0.7c0,0.4,0.3,0.6,0.6,0.6h2.2v6.6     c0,0.4,0.3,0.6,0.7,0.6c0.4,0,0.7-0.3,0.7-0.6v-6.6h2.2c0.3,0,0.6-0.3,0.6-0.6C-144.6,419.8-144.9,419.5-145.2,419.5z"/>
			<path id="XMLID_646_" class="st3" d="M-137.7,419.4c-0.4,0-0.7,0.2-0.7,0.6v2.8h-4V420c0-0.4-0.3-0.6-0.7-0.6     c-0.4,0-0.7,0.2-0.7,0.6v7.3c0,0.4,0.3,0.6,0.7,0.6c0.4,0,0.7-0.3,0.7-0.6v-3.2h4v3.2c0,0.4,0.3,0.6,0.7,0.6     c0.4,0,0.7-0.3,0.7-0.6V420C-137.1,419.7-137.3,419.4-137.7,419.4z"/>
			<path id="XMLID_645_" class="st3" d="M-130.4,426.7h-3.7c-0.2,0-0.2-0.1-0.2-0.1v-2.4h3.3c0.3,0,0.6-0.3,0.6-0.6     c0-0.4-0.2-0.6-0.6-0.6h-3.3v-1.9c0-0.2,0-0.2,0.2-0.2h3.6c0.4,0,0.6-0.3,0.6-0.7c0-0.4-0.2-0.6-0.6-0.6h-3.9     c-0.9,0-1.3,0.4-1.3,1.3v5.8c0,0.9,0.4,1.3,1.3,1.3h4c0.4,0,0.6-0.3,0.6-0.7S-130,426.7-130.4,426.7z"/>
		</g>
		<path id="XMLID_641_" class="st4" d="M-83.4,413h-4.7c-2.2,0-3.2,1.1-3.2,3.3v14.8c0,2.3,1,3.3,3.2,3.3h4.7c6,0,9.7-4.2,9.7-11    C-73.7,416.9-77.3,413-83.4,413z M-77.3,423.6c0,4.9-2.3,7.6-6.3,7.6h-3.9c-0.2,0-0.3,0-0.3-0.4v-14.2c0-0.2,0-0.4,0.4-0.4h3.9    C-78.3,416.3-77.3,420.2-77.3,423.6z"/>
		<path id="XMLID_638_" class="st4" d="M-63.1,413h-4.7c-2.2,0-3.2,1.1-3.2,3.3v14.8c0,2.3,1,3.3,3.2,3.3h4.7c6,0,9.7-4.2,9.7-11    C-53.4,416.9-57,413-63.1,413z M-57,423.6c0,4.9-2.3,7.6-6.2,7.6h-3.9c-0.2,0-0.3,0-0.3-0.4v-14.2c0-0.2,0-0.4,0.4-0.4h3.9    C-58.1,416.3-57,420.2-57,423.6z"/>
		<path id="XMLID_637_" class="st4" d="M-42.3,421.9l-2-0.4c-2.9-0.6-3.5-1.5-3.5-2.9c0-1.7,1.5-2.8,3.9-2.8c2.2,0,3.5,0.9,4,2.6    c0.3,0.7,0.9,1.1,1.6,1.1c0.2,0,0.4,0,0.5-0.1c0.8-0.2,1.4-0.8,1.4-1.5c0-0.2,0-0.4-0.1-0.5c-0.7-2.2-2.5-4.8-7.4-4.8    c-5.5,0-7.5,3.2-7.5,5.9c0,3.5,1.8,5.3,6.1,6.2l2.1,0.4c3.3,0.7,3.9,1.6,3.9,3.2c0,2-1.7,3.2-4.4,3.2c-3.5,0-4.2-1.7-4.7-3.4    c-0.2-0.7-0.8-1.2-1.6-1.2c-0.2,0-0.3,0-0.5,0h-0.1c-0.8,0.2-1.4,0.8-1.4,1.6c0,0.1,0,0.3,0,0.4v0.1c0.8,2.8,2.5,5.6,8.3,5.6    c4.7,0,7.8-2.5,7.8-6.4C-35.6,424.2-38.3,422.8-42.3,421.9z"/>
	</g>
	<g id="XMLID_609_">
		<g id="XMLID_60_">
			<path id="XMLID_65_" class="st2" d="M-167.8,386.5h-6.1c-2.1,0-3,1-3,3.2v17.5c0,0.9,0.6,1.4,1.5,1.4c0.9,0,1.5-0.5,1.5-1.4v-7.5     h6c4.5,0,7.2-2.5,7.2-6.8C-160.7,388.9-163.3,386.5-167.8,386.5z M-163.9,393c0,2.6-1.4,3.9-4.1,3.9h-6v-6.8     c0-0.7,0.4-0.7,0.7-0.7h5.3C-165.3,389.3-163.9,390.6-163.9,393z"/>
			<path id="XMLID_64_" class="st2" d="M-143.9,405.6h-9.8c-0.5,0-0.8-0.2-0.8-0.7v-17.1c0-0.9-0.6-1.4-1.5-1.4     c-1,0-1.5,0.5-1.5,1.4v17.5c0,2.2,0.9,3.2,3,3.2h10.6c0.9,0,1.4-0.8,1.4-1.5C-142.6,406.1-143.1,405.6-143.9,405.6z"/>
			<path id="XMLID_61_" class="st2" d="M-129.8,387.8c-0.4-0.9-1.1-1.4-2.2-1.4c-1,0-1.7,0.5-2.1,1.4l-7.5,18.9     c-0.1,0.2-0.1,0.4-0.1,0.5c0,0.6,0.5,1.2,1.1,1.3c0.2,0.1,0.4,0.1,0.6,0.1c0.6,0,1.1-0.3,1.3-0.9l2.1-5.5h9.2l2.1,5.6     c0.2,0.6,0.7,0.9,1.3,0.9c0.2,0,0.4,0,0.6-0.1c0.7-0.2,1.2-0.7,1.2-1.3c0-0.2,0-0.4-0.1-0.6L-129.8,387.8z M-128.4,399.4h-7.2     l3-7.7c0.2-0.6,0.4-1.2,0.6-1.9c0.2,0.6,0.4,1.2,0.6,1.9L-128.4,399.4z"/>
		</g>
	</g>
</g>
</svg>